<svg xmlns="http://www.w3.org/2000/svg" width="1024" height="1024" style="shape-rendering:geometricPrecision;text-rendering:geometricPrecision;image-rendering:optimizeQuality;fill-rule:evenodd;clip-rule:evenodd"><path fill="#0a1d2d" d="M113.5-.5h910v1024H-.5v-249q2.58 1.876 1 4.5h4l2 5q-1.866.684-2.5-1.5-5.595 4.551 1.5 4.5a4.46 4.46 0 0 0-2 1.5q3.21 3.128 5.5 0 1.61 1.17 3.5-.5-4-1 0-2 2.91-1.114 5.5.5 2.777-2.31 3.5-4.5-6.361-1.15-1.5-4.5l1 1q1.67-1.89.5-3.5l4-1q-3.103-.486-1-2.5a55 55 0 0 1 4.5-2l.5 1a6.8 6.8 0 0 1-3 1.5l6.5 6.5q3.57-7.917 3 0 1.461-3.567 2 1 1.722-1.437 3 1 .561 1.375 1.5 2.5-2.45.74-5 .5-.168-5.759-2 0 1.71 1.388 0 2.5 4 1.5 0 3a8.2 8.2 0 0 1 4 2.5q1.816-1.16 0-2.5 1.863-.466 3 1.5 3.115-2.364 4.5-6l1 1q.225-4.168 2.5-1.5-1.7 1.524 1 2-1.425 1.077-.5 2.5a18.7 18.7 0 0 1 6.5-6q-1.638-1.996-4-2.5a12.8 12.8 0 0 1 6-3q2-1.5 0-3 1.866-.684 2.5 1.5a15.3 15.3 0 0 1 1.5-4.5q-4.392.684-9 0a6.54 6.54 0 0 1 3-3q-1.267-2.337 2-3-2.7-.476-1-2-2.418-1.08-4.5.5.926-2.392-1-4-.634 2.184-2.5 1.5-2.944-2.643-4-5 5.01 1.26 8-3.5 1.83-1.816 3.5 0 .465-1.9 1.5-3.5a20 20 0 0 1-4-3.5q-1.968 1.44-4-.5 2.024-1.158 2.5-3.5l1 3q1.418-6.474 6-2a18.2 18.2 0 0 0 4-6 9.5 9.5 0 0 0 2.5 1.5q-2.64 1.448-1 3.5a12.4 12.4 0 0 0 2.5-4q3.168 3.204-.5 6 1.516 5.584 4 0 5.595 1.127 2.5-4-1.5 2-3 0-.633-4.104 0-8-1.076 1.426-2.5.5 2.09-1.756 2.5-4.5 2.346 7.439 7 1 1 6 2 0 2.702 2.458.5 5.5.763 1.753 2.5 2.5 1-2 2 0l1-2 5 2q1-6 2 0 5.75-3.75 9.5-9.5a54 54 0 0 1-9-4q2.912-4.553 6.5-6.5l1 1a15.3 15.3 0 0 1 4.5-1.5 8.4 8.4 0 0 0-4-.5q.892-4.269 0-9 2.841-2.313-4 1-.5 6-1 0-4.27-.135-7-3.5a7.3 7.3 0 0 1 3-2l-1-1q4.167-.224 1.5-2.5-2.159 2.27-4.5 1a4.45 4.45 0 0 0-1.5 2l-1-4-1 2q-1.5-3.5-5-5l-1-4q-1-2-2 0-2.22-3.245 0-6 3.295 2.38 4 5 2.867-3.784 5.5 0a7.25 7.25 0 0 0 2.5-2q.74 5.227 4.5 1.5-1.526-1.574-.5-3.5.94 3.736 2.5 0 1.964 3.586 3 0 .105-3.249-2-1-1.497-2.985-3-6a4.46 4.46 0 0 1 2-1.5q.145-2.06-.5-4.5l2.5 3q1.325-3.365-2.5-5l-1 1a4.45 4.45 0 0 0-1.5-2l-1 2a15.7 15.7 0 0 1-2-4q1.143-.616 3-.5a22.8 22.8 0 0 1-5-4q-3.597-.561-7 0 1.026-2.74-2-4.5-1.5.5-2 2 1.654.747 3 1-1.623 3.575-2 6.5l3 1q-3.755 1.31-6-2 4-1 0-2 2.184-.634 1.5-2.5-1.076 1.426-2.5.5 2-2.5 0-5a15.3 15.3 0 0 0 4.5-1.5q2.014 1.07 4-1 .255 3.322 2 6 3.05-2.774 0-2-.08-4.118-3.5-6-2.025 4.371-5.5-1 .568-2.363-.5-4.5l4-2-3-1q3.516-1.777 2.5-5.5l-1 2q-1.74-2.243-3.5-4.5 3.795-2.28 9-4.5-3.737-1.561 0-2.5-4.935-3.498-1.5-8.5 2.792 2.772 6.5 0l3-4a4.46 4.46 0 0 0-2-1.5q1.425-1.077.5-2.5-2.772 4.467-6 1l-2 2q-1.065-4.772-1-9a15 15 0 0 1-3.5 3l-1-2-3 4-1-.5 1-3q-4.87-3.687-1-9l-1-1q2.52-.52 3-3a18.3 18.3 0 0 0-4-7q2.47-2.332 1-5 1.684-1.566 4-2-2.333-2.469-5-1l-2-3a39 39 0 0 0 4.5-4.5q1 4 2 0-.855 3.29 1 6l1-4q.725 1.422.5 3 2.837.492 4.5 2 3.103-1.155 5-4l1 1q3.764-7.135-2.5-3-.931-3.748 2-7-1.725-1.846-3.5 0 .087-5.625-5-1-.476-2.701-2-1-2.667-2.276 1.5-2.5-2.84-1.619-1-4a11.4 11.4 0 0 0-2-2.5q-.05 2.233-1.5 4a8.44 8.44 0 0 1-.5-4q-5.95.172-4 5.5-.897 1.952-3 2.5.306-1.543-1.5-3-.677 3.644-2.5.5l5-3q-1.764-2.871-3 .5-7.145-1.78-3.5-8 6.48 2.845 8-4a7.3 7.3 0 0 0 2 3q1.483-9.007 6.5-1.5-2.487 1.088-1.5 3.5a4.45 4.45 0 0 1 1.5-2l1 2a103 103 0 0 1 3-5q-1.24-3.661 0-6.5 1.22-2.827 4-2-2.21 1.064-2 3.5 2.435-.21 3.5 2 2.758-3.316-.5-6.5 2.7-.476 1-2 3.177-1.713 6-1.5 1.625 1.298.5 3-1.5-2-3 0-.051 2.52-.5 4.5a6.54 6.54 0 0 1 3 3q1.424.926 2.5-.5a6.98 6.98 0 0 0 3.5 2.5q-3.815.21-7 2 1.857-.116 3 .5-2.31 1.548-1.5 4 1-2 2 0 1.372-5.528 2 1 .725-1.422.5-3 3.767.298 6.5 1 2.517-1.773-.5-3.5 1.672-1.853 0-3.5a7.25 7.25 0 0 1 2-2.5l-2-1a20.5 20.5 0 0 1 3-5.5q-1.402-3.84 2.5-2 .315-2.337 1.5-4 3.053 50.076 20.5 97Q180.916 758.947 296.5 839a863 863 0 0 0 34 19.5q-14.115.764-27.5 5-4.717-.857-9 0-5.406 1.262-10 4-2.092-1.972-3 1-5.955-2.102-10.5 2.5 3.143.834.5 1.5-2.751-2.914-6-1 .116 1.857-.5 3-3.618-1.977-7 .5-7.549 4.098-11 10 2.598 8.43 10.5 12.5l1-2q1.522 3.903 5.5 5.5l20 7q2 1 4 0-1.426-1.077-.5-2.5 2.565 5.094 8.5 4.5-1.794.981 0 1.5a4.46 4.46 0 0 0 1.5-2q5.82 1.126 11.5 4.5a1628 1628 0 0 0 73.5 9.5q3.453.15 6 2 19.742.135 41 0 2.505 3.298 6 1 5.668 3.31 11 0 1.524 1.701 2-1 2.707 3.809 7.5 3-.282-2.405 1.5-4l2 4q3.94-.652 8.5 0 4.307-.177 8-2 1.794.519 0 1.5 1.9.463 3.5 1.5 5.091-1.434 10.5-1 .5-6 1 0 13.366 1.236 25.5 1 .677-3.644 2.5-.5 10.84.303 21.5.5 2.487-.263 4-2a342 342 0 0 0 27 1q8.271-.965 16.5-2 2.484 2.283 3.5-1 17.692.09 35.5 0a138 138 0 0 1 9-2.5q-1.794-.981 0-1.5a7.3 7.3 0 0 0 3.5 2 2947 2947 0 0 0 64.5-7.5 347.4 347.4 0 0 0 66-19 11.5 11.5 0 0 0 3.5-4.5l1 1q2.514-4.996 2-10 .981 1.794 1.5 0a18.7 18.7 0 0 0-6-6.5 129.3 129.3 0 0 0-26.5-10.5q-4.283-.857-9 0a42 42 0 0 0-7.5-3.5 151 151 0 0 1-17-3.5l-2 2q-1.794-.519 0-1.5-6.135-1.052-9-4.5-3.465 2.868-8 3 162.701-90.922 209.5-271Q948.267 344.767 760.5 186q-148.12-109.847-331-77Q253.454 148.868 161 303.5q-30.685 56.247-43.5 119-1.411-3.937-3.5 0a9.5 9.5 0 0 0-2.5-1.5 7.3 7.3 0 0 0 3-2q-.848-2.51-.5-5.5a11.14 11.14 0 0 1-5.5-3.5l2-1a23 23 0 0 1-5-2q-2-1 0-2-5.36-4.93-9 1.5l1 1q2.528-5.033 6-1l-3 2q2.823-.213 6 1.5-4.752.873-1 3-3.5 1.864-2 5-3.438-1.652-4.5 2.5a3.94 3.94 0 0 0-2-1q-2.407 2.346-5.5 1.5 2.985-2.626 7-3-2.115-.552-3-2.5 2.38-2.51 2-6a4.93 4.93 0 0 0-3 .5q1.73 1.37-.5 2.5a32.4 32.4 0 0 1-4.5-3l3-2q-1.752-2.108 1-3.5a4.93 4.93 0 0 0-3-.5 4.93 4.93 0 0 1-.5 3 15.7 15.7 0 0 0-2.5-4q-2.259-1.87-4.5 0-1.125-1.702.5-3 2.401.998 4.5 1 1.45-1.767 1.5-4a4.46 4.46 0 0 0-2-1.5 9.5 9.5 0 0 0 2.5-1.5q1.395 3.078 4.5 4.5a8.4 8.4 0 0 1-4 .5q-.065 6.59 1.5 1 1.881 5.661 4.5 1.5 2.24-2.052 4.5-.5.855-6.018 3.5-1.5l-1 1a23.7 23.7 0 0 1 3 3.5q3.832-1.205 5.5 3 1.98-.449 4.5-.5a25.6 25.6 0 0 0-5.5-7.5l-1 4q-2.532-1.237-.5-3a10.3 10.3 0 0 0-4-1.5l1-1q-3.057-1.854-3.5-5.5-3.14 1.119-6 1-2.592-2.541 1.5-3.5-3.127-2.29 0-5.5a4.45 4.45 0 0 1 1.5 2q1.08-2.418-.5-4.5 2.217-1.79 4-1.5-1.914-1.717-4 0-5.457-3.368-1 2.5-2.25 1.25-3.5 3.5a37 37 0 0 0-4.5-2q-1.885 5.373-5.5 2-4.016 1.8 0 5 .676-3.644 2.5-.5a13.3 13.3 0 0 1-3 4.5l2 1-3 3q-1.426-1.239-3-.5 1.047 1.456 0 3.5a32.4 32.4 0 0 0 4 5.5q-3.755 2.676 0 5h-6q-.265 2.424-1 4.5-1.68-2-4-1.5 2.138 2.57-1 4 1.425 1.077.5 2.5-1.512-.723-3.5-.5 4.023-3.476-.5-6.5a21.8 21.8 0 0 1-4.5 6.5 12.8 12.8 0 0 1 6 3 30.4 30.4 0 0 0-5.5 7.5l-5-4-1 1a6.98 6.98 0 0 0-2.5-3.5q2.27-3.034 4 .5 2.456-1.807 1-4a34.5 34.5 0 0 1 5.5-6q1.161-6.023-1.5-1.5-1 1-2 0 .842-2.514 3-4l-2-1a53 53 0 0 1 6-8q-3.792-1.003 0-2.5 3.113 3.128 0 5.5 2.83.244 4.5-2.5 1.926 1.608 1 4a20 20 0 0 1 3.5-4q-1.545.306-3-1.5a15 15 0 0 0 3-3.5q-1.412.017-2-1.5l1.5-4.5q.64 4.49 3.5 1.5.357-3.844-3-7 1.5-3.136-2-5l2-1q-2.884-2.19-2-5 3.265-1.803 7-1.5.1-4.899-5-4.5 1.982-2.317-1-3.5a10.3 10.3 0 0 0-1.5 4l-1-2-1 4a28.8 28.8 0 0 0-9.5-4q.015 1.412-1.5 2-2.582-.167-.5-1.5-3.684-1.419-6 1.5l2 1q-2.118 1.96-5 2.5 2.64 1.448 1 3.5-1.526-3.792-3.5 0l-2.5-2.5q6.16-1.313 2-5.5-1.509.656 0 2-1.297 1.624-3 .5a20.5 20.5 0 0 0-2.5-3.5q-1.63 3.648-1.5-1l6 1q.255-1.983-1-3.5a10.8 10.8 0 0 1 3-2.5q1.264 3.509 0 6 2.235-2.438 4.5-5 .398 2.495-1.5 4.5 3.353.1 6.5-1.5l1 1q2.049-2.982 4.5-3-2.133-1.57-4.5 0-2.74-.765-.5-2.5 4.785 1.806 6.5-3.5a20.5 20.5 0 0 1 2.5 4.5q1.864.466 3-1.5 4.942 1.791 4.5-4 4.646-1.184.5-3.5a6.8 6.8 0 0 0 3-1.5q-1.783.29-4-1.5 1.526-1.574.5-3.5-3.195 2.044-1.5-1a4.45 4.45 0 0 0-1.5-2q-1.705 1.296-4 3a38 38 0 0 0-6.5-2.5l1-1a6.54 6.54 0 0 1-3-3 12.76 12.76 0 0 0 6-2.5q3.376 2.422 4-2l-1-1-2 2q-1.388-1.712-2.5 0-2.903-2.863.5-5.5a11.8 11.8 0 0 0-4.5-3.5q-2.724 1.244-5.5 2.5 1.794.981 0 1.5a7.3 7.3 0 0 1-2-3q2.233-.05 4-1.5-6.555-.954-1.5-4.5l3 2a30 30 0 0 0 6.5-2.5l-2-1q.795-2.616 0-4.5a7.3 7.3 0 0 0-3 2q1.718 2.086 0 4a32.4 32.4 0 0 0-6-1.5q3.416-3.063 5-7.5 3.085 2.279 7 2.5-1.7 1.524 1 2-1.58 2.082-.5 4.5.538-4.567 2-1-1.85-6.692 5.5-6 .362 5.248-2.5 1l-1.5 1.5q3.459 2.69 1 6.5 2.61 2.566 6 2.5-7.987-7.526 2.5-3.5a13 13 0 0 1 4.5-4l-2-2q1.975.28 4-2-1.635-1.663 0-3 1.818 3.504-1 6.5 3.444 2.292 3.5 5.5.21-3.815 2-7 2.292 5.012 6 0 .5-2.32-1.5-4 1.497-3.792 2.5 0 1.34-1.817 2.5 0-3.606 3.148 1 5.5-3.587 1.036 0 3-2.704.955-4 3.5 3.508 1.376 4.5 5 1.782-1.595 1.5-4-2.405.282-4-1.5 3.396 1.047 5.5-1.5l3 5q1.524-1.701 2 1l.5-1.5a11.8 11.8 0 0 1-3-5q1.672-1.853 0-3.5a7.25 7.25 0 0 1 2-2.5q-6.35-2.871-2-6a9.5 9.5 0 0 1-1.5-2.5q-.582 1.392-2 2-3.386-.885-5-4l-1 1q-5.544-6.94 2-3-.693-3.625.5-6.5l-2-1a10.8 10.8 0 0 0 3-2.5q-.702 2.42 2 4.5 1.988-.223 3.5.5.672-2.864-2.5-3.5 2.487-1.088 1.5-3.5a14.8 14.8 0 0 1-5.5-3q-1.509.656 0 2-2.259 1.87-4.5 0 .408 4.323 2.5 9-1.297 1.624-3 .5 1.752-2.109-1-3.5-1.238-1.329-3-1a68 68 0 0 0-3.5-5l-1 7q-1.94-2.031-.5-4-3.737-1.561 0-2.5-1.13-2.23-2.5-.5-2.052-2.24-.5-4.5-1.424-.926-2.5.5-.895-4.21 3-6l1.5 1-2 1a6.8 6.8 0 0 0 3 1.5q-2.049 3.657 1.5 1.5 2.874 2.909 7 4l1.5-.5a14.5 14.5 0 0 1-5-4q1.424-.926 2.5.5.476-2.701 2-1a9.5 9.5 0 0 1 1.5-2.5q2.826-.324 5-2-2-1 0-2h-4q-1.701-1.524 1-2-6.362-1.15-1.5-4.5l1 1q.434-2.316 2-4 .506 3.46-2.5 5.5 1.374.561 2.5 1.5a14.4 14.4 0 0 1 2.5-5.5l-1-1q2.668 1.469 5-1a15.04 15.04 0 0 1-6-3.5q-2.2 1.793-4.5 0-1.892.389-3 2a7.3 7.3 0 0 1-2-3q-1.076 1.426-2.5.5-1.685-2.802 0-6a4.46 4.46 0 0 1-2-1.5l3-3q1.266 5.27 6 8 1.137-1.966 3-1.5-.947 2.652 2.5 3.5l1.5-1q-1.428-5.36-4-10a9.1 9.1 0 0 1-5-1q-.627-3.864 2.5 0a11.3 11.3 0 0 1 3.5-1.5q-3.567-1.461 1-2-1.438-4.035 2-1-1.255 1.517-1 3.5a4.93 4.93 0 0 1 3 .5l-4 1a22.2 22.2 0 0 1 6 2.5q-1.635 1.663 0 3 4.505-1.713 7.5-7a23 23 0 0 1 2 5 2.43 2.43 0 0 0 .5-2q1.152 1.144 1.5 3 2.746-13.998 16.5-18-12.312-6.057-16.5-19-.575.834-1.5 1-2.332 2.121-4 5-2.075-3.863-2.5 1a60 60 0 0 0-.5-6q1.346-.253 3-1-1.783-1.393-4-1 .404 2.893-1.5 5-.52-3.522-3.5-5.5 1.823-3.144 2.5.5a6.98 6.98 0 0 1 2.5-3.5q-2.26-1.256-1.5-3.5 3.997-3.053 8.5-2.5a21.7 21.7 0 0 1-7-4q1.857.116 3-.5a4.46 4.46 0 0 0-2-1.5q.699-1.949 0-4.5a6.85 6.85 0 0 1 4 1q1.656-1.697-1-2.5 4.567-.539 1-2l1-1a11.8 11.8 0 0 0-3.5-4.5q-1.588.195-2.5 1.5 1.426 1.077.5 2.5-4.741-2.875.5-5.5a11.3 11.3 0 0 1-3.5-1.5 15 15 0 0 1-3.5 3q.266-2.184-2.5-4-2.349.841-4-2a10.8 10.8 0 0 0-2.5-3q4.875-3.989 0-6.5 1.926-1.026 3.5.5a10.8 10.8 0 0 1 2.5-3 4.46 4.46 0 0 0-1.5-2l-3 3q-2.515-.841-4-3-1.905 4.01-2 0 1.517-1.255 3.5-1-.362-5.248 2.5-1 1.077-1.426 2.5-.5 3.287 2.091 4 4.5a11.5 11.5 0 0 1 2.5-1 605 605 0 0 0 3.5 3q2.799-1.594 1.5 2-1.37-1.73-2.5.5 4.716 1.428 7.5-2.5a7.5 7.5 0 0 0 .5 5 60 60 0 0 1 6-.5q3.236-1.627.5-3.5-2.862 4.248-2.5-1a4.93 4.93 0 0 0 3-.5 57 57 0 0 1-10-3.5q3.314-.844 4.5-4 1.207 3.601 2.5-.5-2.701-.476-1-2a8.4 8.4 0 0 0-4-.5q.428 2.682-1 5-2.401-.998-4.5-1l-2.5 3q.586-1.827-2-2.5l2-2q-1.905-1.35-3-3.5.841 2.349-2 4a22.8 22.8 0 0 0-5-4q-4.882 5.87-5.5-2l3 2q3.111-7.139-3.5-3-1.335-4.586-6-5.5 1.7-1.524-1-2 2.4-1.599 3-4.5a23.6 23.6 0 0 0-3.5-1 23 23 0 0 0-2 5q-.699-4.218 1.5-8 1.56 3.737 2.5 0 1.17-2.166-.5-4-1.329 1.237-1 3a4.93 4.93 0 0 1-3-.5q1.07-2.014-1-4 3.17 1.23 7.5 1.5-.745-2.547.5-5-.548-2.103-2.5-3a23.6 23.6 0 0 1-6 4 9.5 9.5 0 0 0-1.5-2.5q6-2 0-4h4q-2.26-1.256-1.5-3.5a29.8 29.8 0 0 0 7.5-4.5q-1.846-1.774 0-3.5a4.45 4.45 0 0 1 1.5 2q1.555-4.325 5.5-2l-3 2.5q1.424.926 2.5-.5.925 1.423-.5 2.5 3.522.165 4.5 3.5l1-2q13.128 5.076-.5 3.5l9 2.5q-3.946 2.257 1 2a8.4 8.4 0 0 1 .5-4 15.3 15.3 0 0 0 4.5 1.5q-1.794.981 0 1.5 1.426-1.238 3-.5-1.794.981 0 1.5a23.7 23.7 0 0 1 3-3.5q-3.314-1.436.5-3.5 3.67 3.826.5 7.5l2 2q-2.44-.644-4.5-.5-3 2.5 0 5-.116-1.857.5-3 1.329 1.237 1 3 2.435-.21 3.5 2l2.5-2.5q-2-1.5 0-3a4.46 4.46 0 0 1-2-1.5q5.298-3.337 0-5.5a14.8 14.8 0 0 0 2-6.5 8.4 8.4 0 0 1-4-.5q1.794-.981 0-1.5-3.552 1.303-4.5 5-1-2-2 0a26 26 0 0 1-4.5-4l-1 .5q1.611 1.108 2 3-4.52 6.294-6.5-.5l-1 1q-1.158-2.023-3.5-2.5 2-1 0-2 4.329-2.734 7.5 1.5.75-1.75 2.5-2.5-4.25-.25-4.5-4.5a55.4 55.4 0 0 0-7 6 9.5 9.5 0 0 0-2.5-1.5 23.2 23.2 0 0 1 6-7 6.98 6.98 0 0 1-2.5-3.5q-1.774 1.846-3.5 0 1.392-1.902.5-4-2.455 2-2.5 4-8.415-2-1.5-6l1 1q2.59-4.928 7.5-2 2.241-.314 3.5-2 .724 1.422.5 3 2.926-.41 4.5 2 1.391-2.752 3.5-1-.002 3.361 1 7-.66-2.179 2-3.5-1.526-1.574-.5-3.5l2 4a10.9 10.9 0 0 1 4.5-5 31 31 0 0 0-4-4.5l3-1q-2-1 0-2-2.776-1.255-5.5-2.5l-1 2a55 55 0 0 1-4.5-2q4.453-1.752 1-4a26 26 0 0 1 5-3.5 29 29 0 0 1-4-1.5q.306 1.545-1.5 3a32.4 32.4 0 0 1-4.5-3l-1 2.5q2.086 2.595 4 7.5a43 43 0 0 1-1.5 5q-2.232-3.48-5.5-.5-2 1 0 2-1.926 1.026-3.5-.5.569-7.917-3 0l-2-2q-1.786 3.52-5.5 2.5a16.7 16.7 0 0 1 4-4l-3-1q1.656-1.697-1-2.5-2.014 2.103-2.5-1-.74 2.45-.5 5-2.988.257-5-2-1.848.966-4 .5.685.621 1 1.5-.96 8.83-3.5 1-1.806 1.455-1.5 3a23.6 23.6 0 0 0-3-3.5 10.25 10.25 0 0 0 4-1.5q-2.272-1.636-2.5-4 1.524 1.7 2-1a20.8 20.8 0 0 1 6.5 3 23.6 23.6 0 0 1 3-3.5q.081-2.026-1.5-3.5-2.373-.517-4.5 0 2.283-2.484-1-3.5 8.074-6.153-2-3l2 1q-1.75.75-2.5 2.5-.476-2.7-2-1l-2 6q-2.54-5.733-4 1-1-2-2 0-.925-1.424.5-2.5a4.45 4.45 0 0 1-2-1.5q1.795-3.14 4-3.5-.76-3.511-3.5-1.5-1-1 0-2 1.903-.175 4-1 1.803 3.08 1 6a22.8 22.8 0 0 0 4-5l1 2q.74-2.45.5-5h3q-.329-1.762 1-3 3.504 3.127 7 .5-4.446-1.26-1-3-3.505-2.697-2-6.5-4.44-3.42-8.5 0a582 582 0 0 1-2-3q-2.682 1.2-5 1-4.385-1.835-7.5-3.5 2.157-1.86 4.5-1.5-.115 1.857.5 3 9.383-3.003-1-5.5 2-1.5 0-3 2.743-.41 4.5-2.5.621.685 1.5 1 1.816-1.16 0-2.5 4.167-.225 1.5-2.5l-1 1a15.3 15.3 0 0 0-4.5-1.5l1-1q-3.4-1.622-.5-4.5 2.2 2.738 5.5 1.5-3.567-1.461 1-2-1.816-1.34 0-2.5 2.342 1.27 4.5-1l2 2 3-4a10.25 10.25 0 0 0 1.5 4 19 19 0 0 0 5-3q1.046 2.827 3 1l1 1a57.2 57.2 0 0 1-12.5 5q-.634-2.184-2.5-1.5 4.212 3.366 6 8.5-.885 1.948-3 2.5 5.838 3.237 0 2.5-2 1.5 0 3 2.738-1.606 3.5 2l1-3q3.71 1.613 8 2 .725-1.422.5-3 3.183 2.196 9 3a8.4 8.4 0 0 0 .5 4 4.46 4.46 0 0 1 1.5-2q3.288.047 7 .5l-1-1 3-3q-4.27-1.32-2-5-2-1-4 0 2.082 1.335-.5 1.5-2.73-1.656-4.5-4.5 1.75-.75 2.5-2.5.473 3.97 3.5 2 2.031 2.526 5 1.5a6.8 6.8 0 0 1-3-1.5q.657-1.509 2 0a32 32 0 0 1 4-3.5 23 23 0 0 0-5-2q1.75-.75 2.5-2.5 1.003 3.792 2.5 0-1.663-2.198 1.5-3 .099 5.05 0 10 1-2 2 0 .926-1.424-.5-2.5 2.701-.476 1-2a9.5 9.5 0 0 0 1.5-2.5 10.3 10.3 0 0 0 1.5 4q2.289-3.945 1.5-8 2.349.84 4-2 1.98.449 4.5.5-1.794.981 0 1.5.92-2.22 1-4 5.064 6.044-2 5.5 1.25 2.25 3.5 3.5l1-2q.434 2.316 2 4 2.871-1.764-.5-3 1.085-2.495-1-5a7.25 7.25 0 0 1 2-2.5 40 40 0 0 0-4-4.5 4.45 4.45 0 0 1 2-1.5q-2.78-.827-4 2l1 1a46.4 46.4 0 0 0-7.5 4.5q-1.799-4.06-5.5-2-1.91-3.525-4 .5l1 3a4.93 4.93 0 0 1-3 .5q.303-3.735-1.5-7a30.3 30.3 0 0 0-4.5 7.5h4q-2.09 1.757-2.5 4.5a14.6 14.6 0 0 1-4-6q.176 3.748-1 8l-1-4q-2 2-4 0l-.5 1a10.3 10.3 0 0 0 4 1.5q-3.771.854-7-1.5-2.046.815-4 .5.449-1.98.5-4.5 1.974-3.792 3.5 0 3.637-1.96 7-3 4.894 4.003 6-1.5-.17-1.92-2-2.5.586 1.828-2 2.5-3.102 1.03-6-.5-2.774 1.113-2 3a9.4 9.4 0 0 1-3-3 3.65 3.65 0 0 0-1.5 1q.005-5.037 3.5-9-.519-1.794-1.5 0-1.965-2.448-1.5-5 4.41-.828 9.5 0a3.94 3.94 0 0 1 2 1q-.116 1.857.5 3 3.235-2.2 1-5.5 1.764-2.871 3 .5 1.329-1.237 1-3a9.1 9.1 0 0 1-5-1q.29 1.782-1.5 4l-1-3q-4 2-6-2l-1 1q-.25-4.25-4.5-4.5 3.985-2.65 5.5 2.5l2.5-3a4.46 4.46 0 0 1 1.5 2l4-4q4.476 3.31.5-1.5 2.802-.006 5.5 1.5l1.5-1a5.6 5.6 0 0 1-1-3" style="opacity:1"/><path fill="#f9cb29" d="M264.5 78.5q4.533 12.028 17 16-12.777 2.528-16.5 15-3.351-11.848-15.5-14.5 10.449-5.694 15-16.5" style="opacity:1"/><path fill="#010c1c" d="M692.5 858.5q-134.346 67.926-277.5 32-19.31-4.159-38.5-11.5a1456 1456 0 0 1-46-20.5 863 863 0 0 1-34-19.5Q180.916 758.947 132 627.5q-17.447-46.924-20.5-97-3.974-54.418 6-108 12.815-62.753 43.5-119Q253.454 148.868 429.5 109q182.88-32.847 331 77Q948.267 344.767 902 587.5q-46.799 180.078-209.5 271" style="opacity:1"/><path fill="#f45d3d" d="M610.5 130.5q-.444 2.855-2 5-.166-.925-1-1.5-96.76-25.547-193 1.5-1.857-2.571-2-6 91.85-24.04 185-3.5 7.028 1.233 13 4.5" style="opacity:1"/><path fill="#d82620" d="M608.5 135.5a1038 1038 0 0 1-22 69q-75.368-19.357-151-1-1.721-.477-2.5-2a7288 7288 0 0 1-18.5-66q96.24-27.047 193-1.5.834.575 1 1.5" style="opacity:1"/><path fill="#fcc527" d="M181.5 58.5a6173 6173 0 0 1 7.5 46q4.536 23.52 26.5 32.5a107.8 107.8 0 0 0 28 7q-26.079 1.424-44.5 19.5-6.997 9.496-10 21a277.4 277.4 0 0 0-6 45 284.3 284.3 0 0 0-9-53q-6.656-18.155-24.5-25.5a116 116 0 0 0-27-6.5q21.081-3.273 39-14.5 12.568-10.38 15.5-26.5 4.35-22.296 4.5-45" style="opacity:1"/><path fill="#facb2b" d="M853.5 89.5a291 291 0 0 0 3.5 25q2.161 16.157 17.5 21.5a140 140 0 0 0 16 4 171 171 0 0 0-20 6q-10.702 6.225-13.5 18.5a179.5 179.5 0 0 0-3 29q-.817-21.102-10-40-11.12-10.431-26.5-12.5 16.865-2.307 28.5-14.5a54 54 0 0 0 4-9 240 240 0 0 0 3.5-28" style="opacity:1"/><path fill="#296790" d="m770.5 218.5-3 2q-63.866-56.95-146-83v-1q.192-2.385 2-4 83.379 25.918 148 83.5-1.128 1.006-1 2.5" style="opacity:1"/><path fill="#123c5b" d="M621.5 137.5q82.134 26.05 146 83a1666 1666 0 0 0-33.5 35 132 132 0 0 1-17.5 16q-50.774-44.402-116-64l-1-1.5a8948 8948 0 0 1 22-68.5m-220 0a8115 8115 0 0 1 19.5 66q1.171 2.166-.5 4-64.53 20.634-115 65a1689 1689 0 0 1-48-50q60.527-58.539 142-82.5 1.884-.625 2-2.5" style="opacity:1"/><path fill="#29668f" d="M400.5 132.5a20.7 20.7 0 0 1 1 5q-.116 1.875-2 2.5-81.473 23.961-142 82.5a25.5 25.5 0 0 0-7-5q63.871-60.969 150-85" style="opacity:1"/><path fill="#0a1e2f" d="M347.5 175.5q17.477-.13 24.5 16 1.687 4.413 1 9a39.3 39.3 0 0 0-9.5 12.5 267 267 0 0 0-26 17 41 41 0 0 1-8 3.5q.416-4.422-1-8.5-22.766 1.742-19.5-20.5a32 32 0 0 1 5.5-7.5 16817 16817 0 0 0 33-21.5" style="opacity:1"/><path fill="#091d2e" d="M675.5 180.5q8.686-1.516 14.5 5 3.598 7.41-2.5 13 5.073 3.328 7.5 9-.732 17.508-17.5 11.5l-5.5-7.5a309 309 0 0 0-5.5 11 49.8 49.8 0 0 0-13-10q1.101-3.472 4-5.5-2.75-2.682-6-.5-11.685-2.417-9.5-14a25.6 25.6 0 0 1 6.5-5.5l21-1a45.5 45.5 0 0 1 6-5.5" style="opacity:1"/><path fill="#fbc425" d="M120.5 253.5q-4.422-12.916-18-15 13.521-4.521 18-18 .925-.166 1.5-1 4.188 12.943 16.5 19-13.754 4.002-16.5 18-.348-1.856-1.5-3" style="opacity:1"/><path fill="#09243a" d="M857.5 355.5q-20.134-54.787-56.5-100a903 903 0 0 0-22.5-26l1-2a31 31 0 0 0 2-2q55.402 54.425 86 126a30.8 30.8 0 0 1-10 4" style="opacity:1"/><path fill="#28668f" d="M246.5 231.5q-53.428 52.694-82.5 122-1.006 1.129-2.5 1-3.478-.738-6-3 29.379-72.12 85.5-126a46 46 0 0 1 5.5 6" style="opacity:1"/><path fill="#123c5a" d="M246.5 231.5q4.567 4.077 9 8 19.968 21.47 40 43-43.474 42.976-68 99a55191 55191 0 0 0-66-27q1.494.129 2.5-1 29.072-69.306 82.5-122" style="opacity:1"/><path fill="#091c2c" d="M236.5 284.5h12a180.4 180.4 0 0 1 1.5 34q-6.078 13.548-20.5 9.5a25.7 25.7 0 0 1-3.5-7.5q-6.146 7.409-3.5 16.5l-1.5.5a200 200 0 0 1-19.5-13q6.05-2.1 12-4.5 1.255-1.517 1-3.5-16.115.574-10.5-15 4.895-9.887 15.5-13.5a240 240 0 0 1 17-3.5" style="opacity:1"/><path fill="#133d5b" d="M778.5 229.5a903 903 0 0 1 22.5 26q36.366 45.213 56.5 100l-4 3a931 931 0 0 0-59.5 24q-24.5-56.005-67-100-1-1 0-2a3704 3704 0 0 1 51.5-51" style="opacity:1"/><path fill="#091d2d" d="M774.5 284.5q11.511-.25 23 .5 25.372 2.762 17 26-4.76 1.918-9 1.5 1.027 3.07 3.5 5 6.493 2.295 12.5 2a229 229 0 0 0-20 16 47.2 47.2 0 0 0-4-14.5q-10.397 13.213-21.5-.5l-2-6q.319-14.971.5-30" style="opacity:1"/><path fill="#f35b3c" d="M151.5 363.5a36.7 36.7 0 0 0 7 4q-41.025 108.456-16 221-1.487-.257-2 1-1.983-.255-3.5 1-27.703-112.122 11-221 1.074-3.569 3.5-6" style="opacity:1"/><path fill="#d82620" d="M158.5 367.5a1940 1940 0 0 1 65 26q-30.257 83.478-10 170a4499 4499 0 0 1-71 25q-25.025-112.544 16-221" style="opacity:1"/><path fill="#821417" d="M156.5 440.5q12.604-.555 25 1.5 11.34 4.912 10 17.5a103 103 0 0 1-2.5 16 35.6 35.6 0 0 0-4.5 4 26 26 0 0 1 3.5 5q5.994 35.005-28.5 26.5-6.75-2.75-9.5-9.5a570 570 0 0 1 3-58 30 30 0 0 1 3.5-3" style="opacity:1"/><path fill="#db2721" d="M164.5 454.5q5.61-.389 11 1 1.942 5.82 0 11.5a62 62 0 0 0-10.5 1.5 98.4 98.4 0 0 1-.5-14" style="opacity:1"/><path fill="#da2721" d="M164.5 488.5q5.025-.247 10 .5 4.045 5.894-2 10-4.038.645-8-.5z" style="opacity:1"/><path fill="#8c1619" d="M874.5 587.5q-1 0-1-1 28.213-111.186-11-218v-1a23.9 23.9 0 0 0 9-3q28.446 73.863 23.5 153a381 381 0 0 1-10 72l-1 1a31.6 31.6 0 0 0-9.5-3" style="opacity:1"/><path fill="#d82620" d="M862.5 368.5q39.213 106.814 11 218a7051 7051 0 0 1-63-21.5q-1.524-.779-2-2.5 19.255-85.93-10-169 31.984-12.49 64-25" style="opacity:1"/><path fill="#821417" d="M842.5 443.5q12.128-.601 24 1.5a36 36 0 0 1 3.5 4.5 333 333 0 0 1 1 49q-2.838 5.337-8.5 7.5-11.5 1-23 0a6.98 6.98 0 0 1-3.5-2.5 285.7 285.7 0 0 1-2-52q3.148-5.405 8.5-8" style="opacity:1"/><path fill="#db2721" d="M851.5 480.5q8.662-1.838 8 7 .68 6.053-5.5 6-7.712-2.117-5-10 1.047-1.786 2.5-3" style="opacity:1"/><path fill="#dd2721" d="M846.5 454.5q13.724-3.303 10.5 10-15.123 4.623-10.5-10" style="opacity:1"/><path fill="#091b2c" d="M-.5-.5h114a5.6 5.6 0 0 0 1 3l-1.5 1q-2.698-1.506-5.5-1.5 3.976 4.81-.5 1.5l-4 4a4.46 4.46 0 0 0-1.5-2l-2.5 3Q97.485 3.35 93.5 6q4.25.25 4.5 4.5l1-1q2 4 6 2l1 3q1.79-2.218 1.5-4a9.1 9.1 0 0 0 5 1q.329 1.763-1 3-1.236-3.371-3-.5 2.235 3.3-1 5.5-.616-1.143-.5-3a3.94 3.94 0 0 0-2-1q-5.09-.828-9.5 0-.465 2.552 1.5 5 .981-1.794 1.5 0-3.495 3.963-3.5 9 .621-.685 1.5-1a9.4 9.4 0 0 0 3 3q-.774-1.887 2-3 2.898 1.53 6 .5 2.586-.672 2-2.5 1.83.58 2 2.5-1.106 5.503-6 1.5-3.363 1.04-7 3-1.526-3.792-3.5 0-.051 2.52-.5 4.5 1.954.315 4-.5 3.229 2.354 7 1.5a10.3 10.3 0 0 1-4-1.5l.5-1q2 2 4 0l1 4q1.176-4.252 1-8a14.6 14.6 0 0 0 4 6q.41-2.743 2.5-4.5h-4a30.3 30.3 0 0 1 4.5-7.5q1.803 3.265 1.5 7a4.93 4.93 0 0 0 3-.5l-1-3q2.09-4.025 4-.5 3.701-2.06 5.5 2a46.4 46.4 0 0 1 7.5-4.5l-1-1q1.22-2.827 4-2a4.45 4.45 0 0 0-2 1.5 40 40 0 0 1 4 4.5 7.25 7.25 0 0 0-2 2.5q2.085 2.505 1 5 3.371 1.236.5 3-1.566-1.684-2-4l-1 2q-2.25-1.25-3.5-3.5 7.064.544 2-5.5-.08 1.78-1 4-1.794-.519 0-1.5-2.52-.051-4.5-.5-1.651 2.84-4 2 .789 4.055-1.5 8a10.3 10.3 0 0 1-1.5-4 9.5 9.5 0 0 1-1.5 2.5q1.701 1.524-1 2 1.426 1.076.5 2.5-1-2-2 0 .099-4.95 0-10-3.163.802-1.5 3-1.497 3.792-2.5 0-.75 1.75-2.5 2.5a23 23 0 0 1 5 2 32 32 0 0 0-4 3.5q-1.343-1.509-2 0a6.8 6.8 0 0 0 3 1.5q-2.969 1.026-5-1.5-3.027 1.97-3.5-2-.75 1.75-2.5 2.5 1.77 2.844 4.5 4.5 2.582-.165.5-1.5 2-1 4 0-2.27 3.68 2 5l-3 3 1 1a66 66 0 0 0-7-.5 4.46 4.46 0 0 0-1.5 2 8.4 8.4 0 0 1-.5-4q-5.817-.804-9-3a4.93 4.93 0 0 1-.5 3q-4.29-.387-8-2l-1 3q-.762-3.605-3.5-2-2-1.5 0-3 5.838.737 0-2.5 2.115-.552 3-2.5-1.788-5.134-6-8.5 1.866-.684 2.5 1.5a57.2 57.2 0 0 0 12.5-5l-1-1q-1.954 1.827-3-1a19 19 0 0 1-5 3 10.25 10.25 0 0 1-1.5-4l-3 4-2-2q-2.158 2.27-4.5 1-1.816 1.16 0 2.5-4.567.539-1 2-3.3 1.238-5.5-1.5-2.9 2.878.5 4.5l-1 1q2.401.41 4.5 1.5l1-1q2.667 2.275-1.5 2.5 1.816 1.34 0 2.5a3.65 3.65 0 0 1-1.5-1q-1.757 2.09-4.5 2.5 2 1.5 0 3 10.383 2.497 1 5.5-.615-1.143-.5-3-2.343-.36-4.5 1.5 3.115 1.665 7.5 3.5 2.318.2 5-1a582 582 0 0 0 2 3q4.06-3.42 8.5 0-1.505 3.803 2 6.5-3.446 1.74 1 3-3.496 2.627-7-.5-1.329 1.238-1 3h-3q.24 2.55-.5 5l-1-2a22.8 22.8 0 0 1-4 5q.803-2.92-1-6-2.097.825-4 1-1 1 0 2 2.74-2.011 3.5 1.5-2.205.36-4 3.5a4.45 4.45 0 0 0 2 1.5q-1.425 1.076-.5 2.5 1-2 2 0 1.46-6.733 4-1l2-6q1.524-1.7 2 1 .75-1.75 2.5-2.5l-2-1q10.074-3.153 2 3 3.283 1.016 1 3.5 2.127-.517 4.5 0 1.581 1.474 1.5 3.5a23.6 23.6 0 0 0-3 3.5 20.8 20.8 0 0 0-6.5-3q-.476 2.7-2 1 .228 2.364 2.5 4a10.25 10.25 0 0 1-4 1.5 23.6 23.6 0 0 1 3 3.5q-.306-1.545 1.5-3 2.54 7.83 3.5-1a3.65 3.65 0 0 0-1-1.5q2.152.466 4-.5 2.012 2.257 5 2-.24-2.55.5-5 .486 3.103 2.5 1 2.656.803 1 2.5l3 1a16.7 16.7 0 0 0-4 4q3.714 1.02 5.5-2.5l2 2q3.569-7.917 3 0 1.574 1.526 3.5.5-2-1 0-2 3.268-2.98 5.5.5a43 43 0 0 0 1.5-5q-1.914-4.905-4-7.5l1-2.5a32.4 32.4 0 0 0 4.5 3q1.806-1.455 1.5-3a29 29 0 0 0 4 1.5 26 26 0 0 0-5 3.5q3.453 2.248-1 4a55 55 0 0 0 4.5 2l1-2q2.724 1.245 5.5 2.5-2 1 0 2l-3 1a31 31 0 0 1 4 4.5 10.9 10.9 0 0 0-4.5 5l-2-4q-1.026 1.926.5 3.5-2.66 1.321-2 3.5-1.002-3.639-1-7-2.109-1.752-3.5 1-1.574-2.41-4.5-2a4.93 4.93 0 0 0-.5-3q-1.259 1.686-3.5 2-4.91-2.928-7.5 2l-1-1q-6.915 4 1.5 6 .045-2 2.5-4 .892 2.098-.5 4 1.726 1.846 3.5 0a6.98 6.98 0 0 0 2.5 3.5 23.2 23.2 0 0 0-6 7q1.374.561 2.5 1.5a55.4 55.4 0 0 1 7-6q.25 4.25 4.5 4.5-1.75.75-2.5 2.5-3.171-4.234-7.5-1.5 2 1 0 2 2.342.477 3.5 2.5l1-1q1.98 6.794 6.5.5-.389-1.892-2-3l1-.5a26 26 0 0 0 4.5 4q1-2 2 0 .948-3.697 4.5-5 1.794.519 0 1.5a8.4 8.4 0 0 0 4 .5 14.8 14.8 0 0 1-2 6.5q5.298 2.163 0 5.5a4.46 4.46 0 0 0 2 1.5q-2 1.5 0 3l-2.5 2.5q-1.065-2.21-3.5-2 .329-1.763-1-3-.616 1.143-.5 3-3-2.5 0-5 2.06-.144 4.5.5l-2-2q3.17-3.674-.5-7.5-3.814 2.064-.5 3.5a23.7 23.7 0 0 0-3 3.5q-1.794-.519 0-1.5-1.574-.738-3 .5-1.794-.519 0-1.5a15.3 15.3 0 0 1-4.5-1.5 8.4 8.4 0 0 0-.5 4q-4.946.257-1-2l-9-2.5q13.628 1.576.5-3.5l-1 2q-.978-3.335-4.5-3.5 1.425-1.077.5-2.5-1.076 1.426-2.5.5l3-2.5q-3.945-2.325-5.5 2a4.45 4.45 0 0 0-1.5-2q-1.846 1.726 0 3.5a29.8 29.8 0 0 1-7.5 4.5q-.76 2.244 1.5 3.5h-4q6 2 0 4a9.5 9.5 0 0 1 1.5 2.5 23.6 23.6 0 0 0 6-4q1.952.897 2.5 3-1.245 2.453-.5 5-4.33-.27-7.5-1.5 2.07 1.986 1 4a4.93 4.93 0 0 0 3 .5q-.329-1.763 1-3 1.67 1.834.5 4-.94 3.737-2.5 0-2.199 3.782-1.5 8a23 23 0 0 1 2-5q1.703.34 3.5 1-.6 2.901-3 4.5 2.7.476 1 2 4.665.914 6 5.5 6.611-4.138 3.5 3l-3-2q.618 7.87 5.5 2a22.8 22.8 0 0 1 5 4q2.841-1.651 2-4 1.095 2.15 3 3.5l-2 2q2.586.673 2 2.5l2.5-3q2.099.002 4.5 1 1.428-2.318 1-5a8.4 8.4 0 0 1 4 .5q-1.701 1.524 1 2-1.293 4.101-2.5.5-1.186 3.156-4.5 4a57 57 0 0 0 10 3.5 4.93 4.93 0 0 1-3 .5q-.362 5.248 2.5 1 2.736 1.873-.5 3.5a60 60 0 0 0-6 .5 7.5 7.5 0 0 1-.5-5q-2.784 3.928-7.5 2.5 1.13-2.23 2.5-.5 1.299-3.594-1.5-2a605 605 0 0 1-3.5-3q-1.31.353-2.5 1-.713-2.409-4-4.5-1.423-.926-2.5.5-2.862-4.248-2.5 1-1.983-.255-3.5 1 .095 4.01 2 0 1.485 2.159 4 3l3-3a4.46 4.46 0 0 1 1.5 2 10.8 10.8 0 0 0-2.5 3q-1.574-1.526-3.5-.5 4.875 2.511 0 6.5a10.8 10.8 0 0 1 2.5 3q1.651 2.841 4 2 2.766 1.816 2.5 4a15 15 0 0 0 3.5-3 11.3 11.3 0 0 0 3.5 1.5q-5.241 2.625-.5 5.5.926-1.423-.5-2.5.912-1.305 2.5-1.5a11.8 11.8 0 0 1 3.5 4.5l-1 1q3.567 1.461-1 2 2.656.803 1 2.5a6.85 6.85 0 0 0-4-1q.699 2.551 0 4.5a4.46 4.46 0 0 1 2 1.5q-1.143.616-3 .5a21.7 21.7 0 0 0 7 4q-4.503-.553-8.5 2.5-.76 2.244 1.5 3.5a6.98 6.98 0 0 0-2.5 3.5q-.677-3.644-2.5-.5 2.98 1.978 3.5 5.5 1.904-2.107 1.5-5 2.217-.393 4 1-1.654.747-3 1 .383 2.764.5 6 .425-4.863 2.5-1 1.668-2.879 4-5-4.479 13.479-18 18 13.578 2.084 18 15a2.43 2.43 0 0 1-.5 2 23 23 0 0 0-2-5q-2.995 5.287-7.5 7-1.635-1.337 0-3a22.2 22.2 0 0 0-6-2.5l4-1a4.93 4.93 0 0 0-3-.5q-.255-1.983 1-3.5-3.438-3.035-2 1-4.567.539-1 2a11.3 11.3 0 0 0-3.5 1.5q-3.127-3.864-2.5 0a9.1 9.1 0 0 0 5 1q2.572 4.64 4 10l-1.5 1q-3.447-.848-2.5-3.5-1.863-.466-3 1.5-4.734-2.73-6-8l-3 3a4.46 4.46 0 0 0 2 1.5q-1.685 3.198 0 6 1.424.926 2.5-.5a7.3 7.3 0 0 0 2 3q1.108-1.611 3-2 2.3 1.793 4.5 0a15.04 15.04 0 0 0 6 3.5q-2.332 2.469-5 1l1 1a14.4 14.4 0 0 0-2.5 5.5 9.5 9.5 0 0 0-2.5-1.5q3.006-2.04 2.5-5.5-1.565 1.684-2 4l-1-1q-4.862 3.35 1.5 4.5-2.701.476-1 2h4q-2 1 0 2-2.174 1.676-5 2a9.5 9.5 0 0 0-1.5 2.5q-1.524-1.701-2 1-1.076-1.426-2.5-.5a14.5 14.5 0 0 0 5 4l-1.5.5q-4.126-1.091-7-4-3.549 2.157-1.5-1.5a6.8 6.8 0 0 1-3-1.5l2-1-1.5-1q-3.895 1.79-3 6 1.076-1.426 2.5-.5-1.552 2.26.5 4.5 1.37-1.73 2.5.5-3.737.939 0 2.5-1.44 1.969.5 4l1-7a68 68 0 0 1 3.5 5q1.762-.329 3 1 2.752 1.391 1 3.5 1.703 1.124 3-.5-2.092-4.677-2.5-9 2.241 1.87 4.5 0-1.509-1.344 0-2a14.8 14.8 0 0 0 5.5 3q.987 2.412-1.5 3.5 3.172.636 2.5 3.5-1.512-.723-3.5-.5-2.702-2.08-2-4.5a10.8 10.8 0 0 1-3 2.5l2 1q-1.193 2.875-.5 6.5-7.544-3.94-2 3l1-1q1.614 3.115 5 4 1.418-.608 2-2 .561 1.375 1.5 2.5-4.35 3.129 2 6a7.25 7.25 0 0 0-2 2.5q1.672 1.647 0 3.5a11.8 11.8 0 0 0 3 5l-.5 1.5q-.476-2.701-2-1l-3-5q-2.104 2.547-5.5 1.5 1.595 1.782 4 1.5.282 2.405-1.5 4-.992-3.624-4.5-5 1.296-2.545 4-3.5-3.587-1.964 0-3-4.606-2.352-1-5.5-1.16-1.817-2.5 0-1.003-3.792-2.5 0 2 1.68 1.5 4-3.708 5.012-6 0-1.79 3.185-2 7-.056-3.208-3.5-5.5 2.818-2.996 1-6.5-1.635 1.337 0 3-2.025 2.28-4 2l2 2a13 13 0 0 0-4.5 4q-10.487-4.026-2.5 3.5-3.39.066-6-2.5 2.459-3.81-1-6.5l1.5-1.5q2.862 4.248 2.5-1-7.35-.692-5.5 6-1.462-3.567-2 1-1.08-2.418.5-4.5-2.7-.476-1-2-3.915-.221-7-2.5-1.584 4.437-5 7.5 3.084.466 6 1.5 1.718-1.914 0-4a7.3 7.3 0 0 1 3-2q.795 1.884 0 4.5l2 1a30 30 0 0 1-6.5 2.5l-3-2q-5.055 3.546 1.5 4.5-1.767 1.45-4 1.5a7.3 7.3 0 0 0 2 3q1.794-.519 0-1.5 2.776-1.256 5.5-2.5a11.8 11.8 0 0 1 4.5 3.5q-3.403 2.637-.5 5.5 1.112-1.712 2.5 0l2-2 1 1q-.624 4.422-4 2a12.76 12.76 0 0 1-6 2.5 6.54 6.54 0 0 0 3 3l-1 1a38 38 0 0 1 6.5 2.5 457 457 0 0 0 4-3 4.45 4.45 0 0 1 1.5 2q-1.695 3.044 1.5 1 1.026 1.926-.5 3.5 2.217 1.79 4 1.5a6.8 6.8 0 0 1-3 1.5q4.146 2.316-.5 3.5.442 5.791-4.5 4-1.136 1.966-3 1.5a20.5 20.5 0 0 0-2.5-4.5q-1.715 5.306-6.5 3.5-2.24 1.735.5 2.5 2.367-1.57 4.5 0-2.451.018-4.5 3l-1-1q-3.147 1.6-6.5 1.5 1.898-2.005 1.5-4.5a370 370 0 0 1-4.5 5q1.264-2.491 0-6a10.8 10.8 0 0 0-3 2.5q1.255 1.517 1 3.5l-6-1q-.13 4.648 1.5 1a20.5 20.5 0 0 1 2.5 3.5q1.703 1.124 3-.5-1.509-1.344 0-2 4.16 4.187-2 5.5l2.5 2.5q1.974-3.792 3.5 0 1.64-2.052-1-3.5 2.882-.54 5-2.5l-2-1q2.316-2.919 6-1.5-2.082 1.333.5 1.5 1.515-.588 1.5-2a28.8 28.8 0 0 1 9.5 4l1-4 1 2a10.3 10.3 0 0 1 1.5-4q2.982 1.183 1 3.5 5.1-.399 5 4.5-3.735-.303-7 1.5-.884 2.81 2 5l-2 1q3.5 1.864 2 5 3.357 3.156 3 7-2.86 2.99-3.5-1.5l-1.5 4.5q.588 1.517 2 1.5a15 15 0 0 1-3 3.5q1.455 1.806 3 1.5a20 20 0 0 0-3.5 4q.926-2.392-1-4-1.67 2.744-4.5 2.5 3.113-2.372 0-5.5-3.792 1.497 0 2.5a53 53 0 0 0-6 8l2 1q-2.158 1.486-3 4 1 1 2 0 2.661-4.523 1.5 1.5a34.5 34.5 0 0 0-5.5 6q1.456 2.193-1 4-1.73-3.534-4-.5a6.98 6.98 0 0 1 2.5 3.5l1-1 5 4a30.4 30.4 0 0 1 5.5-7.5 12.8 12.8 0 0 0-6-3 21.8 21.8 0 0 0 4.5-6.5q4.523 3.024.5 6.5 1.988-.223 3.5.5.925-1.423-.5-2.5 3.138-1.43 1-4 2.32-.5 4 1.5.735-2.076 1-4.5h6q-3.755-2.324 0-5a32.4 32.4 0 0 1-4-5.5q1.047-2.044 0-3.5 1.574-.739 3 .5l3-3-2-1a13.3 13.3 0 0 0 3-4.5q-1.824-3.144-2.5.5-4.016-3.2 0-5 3.615 3.373 5.5-2a37 37 0 0 1 4.5 2q1.25-2.25 3.5-3.5-4.457-5.868 1-2.5 2.086-1.717 4 0-1.783-.29-4 1.5 1.58 2.082.5 4.5a4.45 4.45 0 0 0-1.5-2q-3.127 3.21 0 5.5-4.092.959-1.5 3.5 2.86.119 6-1 .443 3.646 3.5 5.5l-1 1q2.157.328 4 1.5-2.032 1.763.5 3l1-4a25.6 25.6 0 0 1 5.5 7.5q-2.52.051-4.5.5-1.668-4.205-5.5-3a23.7 23.7 0 0 0-3-3.5l1-1q-2.645-4.518-3.5 1.5-2.26-1.552-4.5.5-2.619 4.161-4.5-1.5-1.565 5.59-1.5-1a8.4 8.4 0 0 0 4-.5q-3.105-1.422-4.5-4.5a9.5 9.5 0 0 1-2.5 1.5 4.46 4.46 0 0 1 2 1.5q-.05 2.233-1.5 4-2.099-.002-4.5-1-1.625 1.298-.5 3 2.241-1.87 4.5 0a15.7 15.7 0 0 1 2.5 4q.725-1.422.5-3a4.93 4.93 0 0 1 3 .5q-2.752 1.392-1 3.5l-3 2a32.4 32.4 0 0 0 4.5 3q2.23-1.13.5-2.5a4.93 4.93 0 0 1 3-.5q.38 3.49-2 6 .885 1.948 3 2.5-4.015.374-7 3 3.093.846 5.5-1.5a3.94 3.94 0 0 1 2 1q1.062-4.152 4.5-2.5-1.5-3.136 2-5-3.752-2.127 1-3-3.177-1.713-6-1.5l3-2q-3.472-4.033-6 1l-1-1q3.64-6.43 9-1.5-2 1 0 2a23 23 0 0 0 5 2l-2 1a11.14 11.14 0 0 0 5.5 3.5q-.348 2.99.5 5.5a7.3 7.3 0 0 1-3 2q1.374.561 2.5 1.5 2.089-3.937 3.5 0-9.974 53.582-6 108-1.185 1.663-1.5 4-3.902-1.84-2.5 2a20.5 20.5 0 0 0-3 5.5l2 1a7.25 7.25 0 0 0-2 2.5q1.672 1.647 0 3.5 3.017 1.727.5 3.5-2.733-.702-6.5-1a4.93 4.93 0 0 1-.5 3q-.628-6.528-2-1-1-2-2 0-.81-2.452 1.5-4-1.143-.616-3-.5 3.185-1.79 7-2a6.98 6.98 0 0 1-3.5-2.5q-1.076 1.426-2.5.5a6.54 6.54 0 0 0-3-3q.449-1.98.5-4.5 1.5-2 3 0 1.125-1.702-.5-3-2.823-.213-6 1.5 1.7 1.524-1 2 3.258 3.184.5 6.5-1.065-2.21-3.5-2-.21-2.436 2-3.5-2.78-.827-4 2-1.24 2.839 0 6.5a103 103 0 0 0-3 5l-1-2a4.45 4.45 0 0 0-1.5 2q-.987-2.412 1.5-3.5-5.017-7.507-6.5 1.5a7.3 7.3 0 0 1-2-3q-1.52 6.845-8 4-3.645 6.22 3.5 8 1.236-3.371 3-.5l-5 3q1.823 3.144 2.5-.5 1.806 1.457 1.5 3 2.103-.548 3-2.5-1.95-5.328 4-5.5a8.44 8.44 0 0 0 .5 4q1.45-1.767 1.5-4a11.4 11.4 0 0 1 2 2.5q-1.84 2.381 1 4-4.167.224-1.5 2.5 1.524-1.701 2 1 5.087-4.625 5 1 1.775-1.846 3.5 0-2.931 3.252-2 7 6.264-4.135 2.5 3l-1-1q-1.897 2.845-5 4-1.663-1.508-4.5-2a4.93 4.93 0 0 0-.5-3l-1 4q-1.855-2.71-1-6-1 4-2 0a39 39 0 0 1-4.5 4.5l2 3q2.667-1.469 5 1-2.316.434-4 2 1.47 2.668-1 5a18.3 18.3 0 0 1 4 7q-.48 2.48-3 3l1 1q-3.87 5.313 1 9l-1 3 1 .5 3-4 1 2a15 15 0 0 0 3.5-3q-.065 4.228 1 9l2-2q3.228 3.467 6-1 .925 1.423-.5 2.5a4.46 4.46 0 0 1 2 1.5l-3 4q-3.708 2.772-6.5 0-3.435 5.002 1.5 8.5-3.737.939 0 2.5-5.205 2.22-9 4.5 1.76 2.257 3.5 4.5l1-2q1.016 3.723-2.5 5.5l3 1-4 2q1.068 2.137.5 4.5 3.475 5.371 5.5 1 3.42 1.882 3.5 6 3.05-.774 0 2-1.745-2.678-2-6-1.986 2.07-4 1a15.3 15.3 0 0 1-4.5 1.5q2 2.5 0 5 1.424.926 2.5-.5.684 1.866-1.5 2.5 4 1 0 2 2.245 3.31 6 2l-3-1q.377-2.925 2-6.5-1.346-.253-3-1 .5-1.5 2-2 3.026 1.76 2 4.5 3.403-.561 7 0a22.8 22.8 0 0 0 5 4q-1.857-.116-3 .5a15.7 15.7 0 0 0 2 4l1-2a4.45 4.45 0 0 1 1.5 2l1-1q3.825 1.635 2.5 5l-2.5-3q.645 2.44.5 4.5a4.46 4.46 0 0 0-2 1.5q1.503 3.015 3 6 2.105-2.249 2 1-1.036 3.586-3 0-1.56 3.736-2.5 0-1.026 1.926.5 3.5-3.76 3.727-4.5-1.5a7.25 7.25 0 0 1-2.5 2q-2.633-3.784-5.5 0-.705-2.62-4-5-2.22 2.755 0 6 1-2 2 0l1 4q3.5 1.5 5 5l1-2 1 4a4.45 4.45 0 0 1 1.5-2q2.341 1.27 4.5-1 2.667 2.276-1.5 2.5l1 1a7.3 7.3 0 0 0-3 2q2.73 3.365 7 3.5.5 6 1 0 6.841-3.313 4-1 .892 4.731 0 9a8.4 8.4 0 0 1 4 .5 15.3 15.3 0 0 0-4.5 1.5l-1-1q-3.588 1.947-6.5 6.5a54 54 0 0 0 9 4q-3.75 5.75-9.5 9.5-1-6-2 0l-5-2-1 2q-1-2-2 0-1.737-.747-2.5-2.5 2.202-3.042-.5-5.5-1 6-2 0-4.654 6.439-7-1-.41 2.744-2.5 4.5 1.424.926 2.5-.5-.633 3.896 0 8 1.5 2 3 0 3.095 5.127-2.5 4-2.484 5.584-4 0 3.668-2.796.5-6a12.4 12.4 0 0 1-2.5 4q-1.64-2.052 1-3.5a9.5 9.5 0 0 1-2.5-1.5 18.2 18.2 0 0 1-4 6q-4.582-4.474-6 2l-1-3q-.476 2.342-2.5 3.5 2.032 1.94 4 .5a20 20 0 0 0 4 3.5 11.4 11.4 0 0 0-1.5 3.5q-1.67-1.816-3.5 0-2.99 4.76-8 3.5 1.056 2.357 4 5 1.866.684 2.5-1.5 1.926 1.608 1 4 2.082-1.58 4.5-.5-1.7 1.524 1 2-3.267.663-2 3a6.54 6.54 0 0 0-3 3q4.608.684 9 0a15.3 15.3 0 0 0-1.5 4.5q-.634-2.184-2.5-1.5 2 1.5 0 3a12.8 12.8 0 0 0-6 3q2.362.504 4 2.5a18.7 18.7 0 0 0-6.5 6q-.925-1.423.5-2.5-2.7-.476-1-2-2.275-2.668-2.5 1.5l-1-1q-1.385 3.636-4.5 6-1.137-1.966-3-1.5 1.816 1.34 0 2.5a8.2 8.2 0 0 0-4-2.5q4-1.5 0-3 1.71-1.112 0-2.5 1.832-5.759 2 0 2.55.24 5-.5a9.5 9.5 0 0 1-1.5-2.5q-1.278-2.437-3-1-.539-4.567-2-1 .57-7.917-3 0l-6.5-6.5a6.8 6.8 0 0 0 3-1.5l-.5-1a55 55 0 0 0-4.5 2q-2.103 2.014 1 2.5l-4 1q1.17 1.61-.5 3.5l-1-1q-4.861 3.35 1.5 4.5-.723 2.19-3.5 4.5-2.59-1.614-5.5-.5-4 1 0 2-1.89 1.67-3.5.5-2.29 3.128-5.5 0a4.46 4.46 0 0 1 2-1.5q-7.095.051-1.5-4.5.634 2.184 2.5 1.5l-2-5h-4q1.58-2.624-1-4.5z" style="opacity:1"/><path fill="#08243a" d="M871.5 601.5q5.696-.284 9 4-22.202 75.426-72.5 135a84 84 0 0 1-7.5-8q49.182-57.848 71-131" style="opacity:1"/><path fill="#296790" d="M144.5 601.5h2q21.694 74.404 70 134a19.6 19.6 0 0 1-3.5 4q-48.931-60.592-72.5-135.5 1.284-2.392 4-2.5" style="opacity:1"/><path fill="#031021" d="M412.5 129.5q.143 3.429 2 6a7288 7288 0 0 0 18.5 66q.779 1.523 2.5 2 75.632-18.357 151 1a1038 1038 0 0 0 22-69q1.556-2.145 2-5 5.865-.356 11 2.5-1.937 1.938 0 3.5v1a8948 8948 0 0 0-22 68.5l1 1.5q65.226 19.598 116 64a132 132 0 0 0 17.5-16 1666 1666 0 0 1 33.5-35l3-2q1.385-1.205 3-.5l6 6q-3.154 1.28 0 3.5l-1 2a3704 3704 0 0 0-51.5 51q-1 1 0 2 42.5 43.995 67 100a931 931 0 0 1 59.5-24 17.7 17.7 0 0 1 6-.5q2.04 2.906-1 5 3.586 1.964 0 3 2.098.892 4-.5 1.445.705 0 2v1q-32.016 12.51-64 25 29.255 83.07 10 169 .476 1.721 2 2.5a7051 7051 0 0 0 63 21.5q0 1 1 1a6655 6655 0 0 0-3 10q-4.716.285-9 0a1028 1028 0 0 0-58-20q-16.761 58.863-54 107l48 47q-1.106 2.822-3.5 2a4.93 4.93 0 0 0-.5 3 4.93 4.93 0 0 0-3 .5l1 1a9.5 9.5 0 0 0-2.5 1.5q-7.637-8.397-16.5-15a1341 1341 0 0 0-31.5-30q-45.923 54.408-111.5 82.5a277 277 0 0 1 11 27.5q-.895.352-1 1.5l2 5q-1.745 3.766-4.5 4.5-1-4-2 0-.476-2.701-2-1-1.916-3.37-4.5-6a430 430 0 0 1-11.5-27q-78.676 29.128-161.5 14.5a300.7 300.7 0 0 1-52-14.5 183 183 0 0 0-9 20q-2.12-1.899-4-2a7.3 7.3 0 0 0 2-3q-2.403-4.257-1.5-9 .631 4.148 4.5 3.5-3.74-3.168-2.5-7.5-1.5-2-3 0-.222-3.608 1.5-7l-.5-2q-.598.342-.5 1-64.28-28.251-111-81a21705 21705 0 0 0-48 44q-4.796-1.553-8.5-4-1.142 5.626-3.5.5a120 120 0 0 0 9-9.5q21.015-21.003 42-42-37.987-47.967-55.5-107a2869 2869 0 0 0-69.5 25h-2q-1.758-1.808-4 0a33.3 33.3 0 0 1-3-8.5q1.416-2.216 4-3-.343-.598-1-.5.513-1.257 2-1a4499 4499 0 0 0 71-25q-20.257-86.522 10-170a1940 1940 0 0 0-65-26 36.7 36.7 0 0 1-7-4q-.166-.926-1-1.5a178 178 0 0 1 5-10.5q2.522 2.262 6 3a55191 55191 0 0 1 66 27q24.526-56.024 68-99a323052 323052 0 0 1-40-43q-1.647-1.345 0-2.5-3.688-1.086-3-4a55 55 0 0 0-2-4.5 7.25 7.25 0 0 0-2.5 2 46.6 46.6 0 0 1-5.5-6q3.104-4.61 8-7a25.5 25.5 0 0 1 7 5 1689 1689 0 0 0 48 50q50.47-44.366 115-65 1.671-1.834.5-4a8115 8115 0 0 0-19.5-66 20.7 20.7 0 0 0-1-5 61 61 0 0 1 12-3" style="opacity:1"/><path fill="#f2d61d" d="M255.5 632.5q-18.764-31.768-27-68a2729 2729 0 0 0 12.5 36 2045 2045 0 0 1 14.5 32" style="opacity:1"/><path fill="#f7dd1e" d="M759.5 348.5q14.755 23.013 24 49-11.223-23.961-24-49" style="opacity:1"/><path fill="#fad65a" d="M644.5 240.5q-38.235-17.157-80-22.5-156.356-23.719-264.5 90.5-92.999 110.752-72.5 254-30.505-146.987 67.5-260Q409.836 184.395 572.5 215q37.948 7.894 72 25.5" style="opacity:1"/><path fill="#fcb51b" d="M644.5 240.5q55.9 27.628 94.5 77a193.4 193.4 0 0 1 20.5 31q12.777 25.039 24 49 7.57 18.76 11 39 18.543 139.25-71.5 246Q622.933 791.358 474.5 780a306 306 0 0 1-41-7 2174 2174 0 0 0-36-10.5q-93.495-40.497-142-130a2045 2045 0 0 0-14.5-32 2729 2729 0 0 1-12.5-36q-1.257-.513-1-2-20.499-143.248 72.5-254Q408.144 194.281 564.5 218q41.765 5.343 80 22.5" style="opacity:1"/><path fill="#f6d71c" d="M250.5 453.5a334.2 334.2 0 0 0-1 81 2.43 2.43 0 0 1-.5 2 252 252 0 0 1-2-66q.695-9.775 3.5-17" style="opacity:1"/><path fill="#f3dc1d" d="M274.5 380.5a331 331 0 0 0-21 61q-.936-.626-1-2 6.931-31.325 22-59" style="opacity:1"/><path fill="#f2d91e" d="M739.5 366.5q14.454 23.17 23 49.5-.105 1.148-1 1.5a345.6 345.6 0 0 0-22-51" style="opacity:1"/><path fill="#f3d81e" d="M656.5 278.5q-32.336-20.414-69-32a19.6 19.6 0 0 1 3.5-2 161.4 161.4 0 0 0 24.5 10.5 772 772 0 0 1 33 17 53.6 53.6 0 0 1 8 6.5" style="opacity:1"/><path fill="#821418" d="M465.5 145.5q13.246.744 15 14a8.4 8.4 0 0 0 4-.5 111 111 0 0 1 14-11q9.382-1.69 18 2a51 51 0 0 1 4 5.5q-11.727 2.726-21 10a4.46 4.46 0 0 0 1.5 2q15.042-4.01 4.5 6.5-13.835 9.384-29 2.5-5.077-8.694-13.5-14-3.612-5.463-2-12 1.537-3.28 4.5-5" style="opacity:1"/><path fill="#f9dc5f" d="M452.5 753.5q126.702 24.652 227-55.5 116.506-105.264 88-260.5 3.158 7.197 4.5 17 12.417 89.994-28 171-53.182 90.673-152.5 125.5-69.338 21.541-139 2.5" style="opacity:1"/><path fill="#123c5b" d="m229.5 725.5-13 10q-48.306-59.596-70-134a2869 2869 0 0 1 69.5-25q17.513 59.033 55.5 107-20.985 20.997-42 42" style="opacity:1"/><path fill="#091e2f" d="M198.5 617.5q7.023.762 10.5 7a205 205 0 0 1 2.5 14.5q6.765-1.914 14-1 8.47 7.776 2 17a10.4 10.4 0 0 1-5 1.5q-13.703-2.316-2 8.5a58 58 0 0 0 11 5 140 140 0 0 1-24.5 14.5q3.67-10.842-2-21l-1-1q-10.518 16.893-18-2-2.954-11.058 8.5-12.5-3.526-7.515-7-15-2.674-7.452 3-13a147 147 0 0 1 8-2.5" style="opacity:1"/><path fill="#133d5b" d="M862.5 597.5q4.866 1.444 9 4-21.818 73.152-71 131l-2-1-48-47q37.239-48.137 54-107a1028 1028 0 0 1 58 20" style="opacity:1"/><path fill="#0a2134" d="M812.5 618.5q25.458-.808 30 24.5l-.5 3.5a327 327 0 0 0-20 28 142 142 0 0 1-7.5 8.5q-5.928 1.368-11-2l-13-9q-5.15-8.428-.5-17.5a681 681 0 0 1 16-31q2.948-3.075 6.5-5" style="opacity:1"/><path fill="#041224" d="M587.5 246.5q36.664 11.586 69 32a69.2 69.2 0 0 0 13 9.5 375 375 0 0 1 21 3l2.5 2.5a84.5 84.5 0 0 1 2 16q24.909 26.631 44.5 57a345.6 345.6 0 0 1 22 51 334 334 0 0 1 6 20q28.506 155.236-88 260.5-100.298 80.152-227 55.5-122.957-32.598-180.5-146-15.996-35.224-22.5-73a334.2 334.2 0 0 1 1-81q1.485-5.827 3-12a331 331 0 0 1 21-61q69.001-126.571 213-144.5 51.042-4.065 100 10.5" style="opacity:1"/><path fill="#f2d11c" d="M269.5 556.5q10.467 34.88 28 67-20.136-30.793-28-67" style="opacity:1"/><path fill="#efd61e" d="M749.5 564.5q-6.941 27.864-22 52 13.136-26.136 22-52" style="opacity:1"/><path fill="#faad17" d="M355.5 318.5q-7.22 11.82-3 25-1.223 2.664-3.5 2-.5-2.32 1.5-4-2.052-1.64-3.5 1-.634-2.184-2.5-1.5a37 37 0 0 1 2 4.5 15.7 15.7 0 0 0-2.5 4 4.46 4.46 0 0 0-1.5-2 83 83 0 0 0-3 6.5q2.701.476 1 2 4.22.32 2-3.5 1.16-1.817 2.5 0 .683-7.566 6.5-5-.865 3.075-4 3-.064 6.59 1.5 1 3.171 2.18 4 6a193 193 0 0 1 4-3 1490 1490 0 0 1 17 40q1.035 1.857 1.5 0a2200 2200 0 0 1 24 57q-.814.09-1 1l11.5 29q3.369 8.744 7.5 15 4.94 11.898 10 24-.814.09-1 1a657 657 0 0 0 18.5 42q1.224 1.984 3.5 2 11.985 5.726 25 3-3.125 20.401 18 21 21.384 7.537 41-4.5A5495 5495 0 0 1 676 422.5q6.697-7.782 5-18-6.078 7.825-13.5 14a182 182 0 0 1 15-17 18.5 18.5 0 0 0 .5 6q5.789-15.65-8.5-23.5-11.99-.75-24-.5a2209 2209 0 0 0 37-51l3 1.5a311 311 0 0 1 20.5 21.5 14627 14627 0 0 0 22.5 33q41.992 84.897 16 176-8.864 25.864-22 52-41.574 75.532-121 109a544 544 0 0 1-30.5 10 11.3 11.3 0 0 1-4-2q-.684 1.866 1.5 2.5a249 249 0 0 1-45 8 12.9 12.9 0 0 0 5 .5q-46.374 4.626-91-9-23.578-8.721-48-20-62.112-31.611-97-92-17.533-32.12-28-67-4.968-14.935-6.5-31a386 386 0 0 1-1.5-42q.684 25.902 4.5 52-7.359-111.174 65-195 11.355-12.253 24.5-22" style="opacity:1"/><path fill="#f7cf1a" d="M399.5 682.5a1194 1194 0 0 0 11 23.5q12 1 24 0 4.68-3.591 6-9.5.55 5.748-4 10.5a118 118 0 0 1-25 1 6.98 6.98 0 0 1-3.5-2.5 319 319 0 0 1-8.5-23" style="opacity:1"/><path fill="#fce317" d="M643.5 678.5v-15q.25-30.504-.5-61a9.5 9.5 0 0 0-1.5-2.5 121 121 0 0 0-22 0q-1.32 2.034-1 4.5a2353 2353 0 0 0-1 97q-1.107-10.678-2-23.5 1.23-37.704 1.5-75.5.5-4.5 5-5 8.946-.117 18.5.5 2.75.75 3.5 3.5 1.267 55.522-.5 77" style="opacity:1"/><path fill="#04052a" d="M643.5 663.5q-1.93-2.057-2-5.5 1.31-29.192 0-56-4.467-1.687-9.5-1.5-6.288.237-12.5 1 .25 14.508-.5 29-.75-12.99-.5-26-.32-2.466 1-4.5a121 121 0 0 1 22 0 9.5 9.5 0 0 1 1.5 2.5q.75 30.496.5 61" style="opacity:1"/><path fill="#f2d11c" d="M476.5 603.5q.936.626 1 2a2052 2052 0 0 1-29.5 75q-.598-.342-.5-1z" style="opacity:1"/><path fill="#051527" d="m476.5 603.5-29 76a196 196 0 0 0-7 17q-1.32 5.909-6 9.5-12 1-24 0a1194 1194 0 0 1-11-23.5 1908 1908 0 0 0-28.5-72q-1.977-4.395-2-9a78.6 78.6 0 0 1 25 0 2670 2670 0 0 1 29 77 5470 5470 0 0 0 29-78q11.13-1.72 22.5-.5 2.21 1.064 2 3.5m167 60v15a309 309 0 0 0-1.5 25l-1.5 1.5q-10.989.75-22 .5.401-2.398-1-4a2353 2353 0 0 1 1-97q-.25 13.01.5 26 .75-14.492.5-29 6.212-.763 12.5-1 5.033-.187 9.5 1.5 1.31 26.808 0 56 .07 3.443 2 5.5m-112-66q53.589-4.126 64.5 48 1.926 62.571-60.5 63.5-42.084-6.585-49.5-48.5-2.18-49.678 45.5-63" style="opacity:1"/><path fill="#f9ad17" d="M532.5 620.5q42.55-1.693 38.5 41-7.941 28.394-37.5 24.5-18.526-5.529-22.5-24.5-4.932-29.15 21.5-41" style="opacity:1"/><path fill="#c6760d" d="M652.5 523.5q7.95.174 10.5 8a62.7 62.7 0 0 0 1.5 11q16.645 1.273 10.5 17-8.194 7.942-16.5 0-1.82 10.605 8 15.5-12.115.597-24 1 8.093-6.442 5.5-16.5-6.037 4.34-13.5 2.5-7.802-7.125 0-14a30.8 30.8 0 0 1 12-3.5q-4.501-13.041 6-21" style="opacity:1"/><path fill="#f2d31b" d="M427.5 520.5a2171 2171 0 0 1 14.5 35 77 77 0 0 0 6.5 10q-2.276-.016-3.5-2a657 657 0 0 1-18.5-42q.186-.91 1-1" style="opacity:1"/><path fill="#c5760d" d="M328.5 485.5q28.608 1.192 41.5 27 5.754 38.258-33 41-44.832-4.324-40-49 5.143-8.958 14.5-13.5a496 496 0 0 1 17-5.5" style="opacity:1"/><path fill="#f8ab17" d="M320.5 529.5a645 645 0 0 1 22.5 8l1.5 1a6.85 6.85 0 0 0-1 4q-16.977 4.647-24-11 .544-1.025 1-2" style="opacity:1"/><path fill="#f8ac17" d="M349.5 516.5q5.528-.063 8 4.5-.987 5.344-6.5 5.5-4.946-2.487-3-8 1.075-.816 1.5-2" style="opacity:1"/><path fill="#f9af19" d="M338.5 496.5q10.868.083 6 9.5-5.002 3.437-8.5-1.5-.147-4.403 2.5-8" style="opacity:1"/><path fill="#f9ac17" d="M313.5 498.5q9.75-1.502 7.5 8-4.527 7.147-10 1-1.605-5.463 2.5-9" style="opacity:1"/><path fill="#f2d51b" d="m399.5 451.5 18 45q-4.131-6.256-7.5-15l-11.5-29q.186-.91 1-1" style="opacity:1"/><path fill="#fcb51b" d="M664.5 316.5a288752 288752 0 0 0-54 80q.044 2.294 2 3.5l44 1q1.426 1.077.5 2.5-11 9-20 20a10918 10918 0 0 0-115 134q-8.43 9.94-19.5 16.5a27.84 27.84 0 0 1-13-1q-1.524-.779-2-2.5a274 274 0 0 1 14-28 934 934 0 0 0 34-70q6.344-14.664 12.5-29a4781 4781 0 0 0-78 106q-5.947 7.96-11.5 0a37 37 0 0 0-2-5.5q2.766-3.841 1.5-8.5l-10-32a3680 3680 0 0 0-57-142l-7.5-22a3.65 3.65 0 0 1 1-1.5q30.018-.5 60-2a33 33 0 0 0 6-2.5q2.93 1.688 4.5 5a811 811 0 0 1 13.5 36q-.814.09-1 1a2427 2427 0 0 0 22 58q1.258.512 1 2-.988 6.864 6.5 9a21 21 0 0 0 4.5-3q5.385-.066 7.5-5 26.477-50.953 53-102a110.4 110.4 0 0 1 12.5-18.5l6-2 65-1q11.78-.433 23-3a22.2 22.2 0 0 0-4 6.5" style="opacity:1"/><path fill="#f3de20" d="M535.5 472.5a934 934 0 0 1-34 70 848 848 0 0 1 34-70" style="opacity:1"/><path fill="#c6760d" d="M687.5 440.5q13.509-.25 27 .5 3.903 1.324 6.5 4.5a291 291 0 0 1 6 45q-4.73 13.745-16.5 22.5-18.485 1.113-36-5a17.8 17.8 0 0 1-5.5-4.5 133.7 133.7 0 0 0-5-22 90.5 90.5 0 0 1 0-19q7.777-15.536 23.5-22" style="opacity:1"/><path fill="#f9ad18" d="M696.5 495.5a41.7 41.7 0 0 1 9 1q-1.455 11.479-12 6.5-2.47-5.293 3-7.5" style="opacity:1"/><path fill="#f9ac17" d="M674.5 479.5q12.316 4.328 2.5 13-5.067-5.694-2.5-13" style="opacity:1"/><path fill="#f9ad17" d="M717.5 473.5q8.25-1.003 6.5 7-1.426 7.463-7 3a38.3 38.3 0 0 1-2.5-6.5q.857-2.399 3-3.5" style="opacity:1"/><path fill="#fab018" d="M695.5 462.5q5.208-.805 8.5 3 1.35 6.798-5.5 8-2.294-.044-3.5-2-1.104-4.638.5-9" style="opacity:1"/><path fill="#f9ad17" d="M680.5 456.5q8.284.093 5.5 8-3.267 5.348-8 1-1.61-5.4 2.5-9" style="opacity:1"/><path fill="#f9ac17" d="M701.5 450.5h8q1.74 6.984-5 8-6.599.143-6.5-6a19.6 19.6 0 0 0 3.5-2" style="opacity:1"/><path fill="#fbd458" d="M444.5 329.5q4.047.517 6 4a33 33 0 0 1-6 2.5q-29.982 1.5-60 2a3.65 3.65 0 0 0-1 1.5l7.5 22a3680 3680 0 0 1 57 142l10 32q1.266 4.659-1.5 8.5a37 37 0 0 1 2 5.5q-3.966-4.91-6.5-11a6378 6378 0 0 0-81-198q-2.301-4.643-.5-9 .866 1.57 2-.5 36.255-.252 72-1.5" style="opacity:1"/><path fill="#c6760d" d="M320.5 402.5q24.621-1.65 28.5 23-.548 28.907-29.5 28.5-14.943-2.443-16.5-17.5-1.984-22.532 17.5-34" style="opacity:1"/><path fill="#f9ad17" d="M315.5 432.5a41 41 0 0 1 9 .5q3.935 3.838-1 7a16.24 16.24 0 0 1-8 0q-3.879-3.741 0-7.5" style="opacity:1"/><path fill="#c5760d" d="M491.5 589.5q17.718 3.321 31-8.5L635 452.5a1578 1578 0 0 1 32.5-34q7.422-6.175 13.5-14 1.697 10.218-5 18A5495 5495 0 0 0 532.5 585q-19.616 12.037-41 4.5" style="opacity:1"/><path fill="#f8ab17" d="M321.5 413.5q13.522-2.358 7 9.5-9.613-.353-7-9.5" style="opacity:1"/><path fill="#f2d81e" d="M468.5 374.5a1034 1034 0 0 1 21 59 2427 2427 0 0 1-22-58q.186-.91 1-1" style="opacity:1"/><path fill="#f3e558" d="M535.5 365.5q-11.529 28.612-26.5 57a153 153 0 0 1-7 15 8.4 8.4 0 0 0-.5 4 21 21 0 0 1-4.5 3q-7.488-2.136-6.5-9 1.383 7.694 8.5 6a3982 3982 0 0 1 36.5-76" style="opacity:1"/><path fill="#eed31d" d="M527.5 343.5a1370 1370 0 0 1-30.5 63 2.43 2.43 0 0 1-.5-2 2605 2605 0 0 1 31-61" style="opacity:1"/><path fill="#f5d71b" d="M649.5 384.5q0-1 1-1 12.01-.25 24 .5 14.289 7.85 8.5 23.5a18.5 18.5 0 0 1-.5-6q1.655-12.46-10-16.5-11.489-.75-23-.5" style="opacity:1"/><path fill="#c5770e" d="M733.5 388.5a14627 14627 0 0 1-22.5-33 311 311 0 0 0-20.5-21.5l-3-1.5a2209 2209 0 0 1-37 51q-1 0-1 1a31.1 31.1 0 0 1-11-1 4275 4275 0 0 1 46.5-63q30.539 29.6 48.5 68" style="opacity:1"/><path fill="#c5760d" d="M564.5 289.5a1445 1445 0 0 1 54-1.5q-63.226-34.172-135-26-69.159 9.099-123 52.5a803 803 0 0 0-5 4q-13.145 9.747-24.5 22-72.359 83.826-65 195-3.816-26.098-4.5-52 12.195-127.802 119-197.5 95.825-56.33 203-26 31.942 9.974 60 28l-5 1q-36.996.75-74 .5" style="opacity:1"/><path fill="#f8c11a" d="M364.5 314.5q-15.858 8.235-11.5 26a1933 1933 0 0 0 22.5 54q-.465 1.857-1.5 0a1490 1490 0 0 0-17-40 193 193 0 0 0-4 3q-.829-3.82-4-6-1.564 5.59-1.5-1 3.135.075 4-3-5.817-2.566-6.5 5-1.34-1.817-2.5 0 2.22 3.82-2 3.5 1.701-1.524-1-2a83 83 0 0 1 3-6.5 4.46 4.46 0 0 1 1.5 2 15.7 15.7 0 0 1 2.5-4 37 37 0 0 0-2-4.5q1.866-.684 2.5 1.5 1.448-2.64 3.5-1-2 1.68-1.5 4 2.277.664 3.5-2-4.22-13.18 3-25a803 803 0 0 1 5-4q2.302-1.281 4 0" style="opacity:1"/><path fill="#fdfd67" d="M444.5 329.5q-35.745 1.248-72 1.5-1.134 2.07-2 .5.166-.926 1-1.5 36.496-.75 73-.5" style="opacity:1"/><path fill="#f3ed64" d="M662.5 304.5a4308 4308 0 0 1-93 1.5 20.23 20.23 0 0 0-7.5 7.5 241 241 0 0 1-16.5 32q7.733-16.467 15.5-33a20.23 20.23 0 0 1 7.5-7.5q46.998-.75 94-.5" style="opacity:1"/><path fill="#fdd357" d="M662.5 304.5a32.5 32.5 0 0 1 8 .5 3.94 3.94 0 0 1 1 2q-2.695 5.43-7 9.5a22.2 22.2 0 0 1 4-6.5q-11.22 2.567-23 3l-65 1-6 2a110.4 110.4 0 0 0-12.5 18.5l-53 102q-2.115 4.934-7.5 5a8.4 8.4 0 0 1 .5-4q3.91-7.32 7-15 14.971-28.388 26.5-57a140 140 0 0 1 10-20 241 241 0 0 0 16.5-32 20.23 20.23 0 0 1 7.5-7.5q46.754-.252 93-1.5" style="opacity:1"/><path fill="#faae17" d="M564.5 289.5q-8.628.694-13.5 8a1484 1484 0 0 1-23.5 46 2605 2605 0 0 0-31 61 12166 12166 0 0 0-29.5-79q-5.943-9.721-16.5-13-18.89-1.013-40-1l-41 .5q-3.009.125-3 1.5-.512 1.258-2 1-1.698-1.281-4 0 53.841-43.401 123-52.5 71.774-8.172 135 26-27.257.252-54 1.5" style="opacity:1"/><path fill="#fcd619" d="M450.5 312.5q-42.005.18-84 1-.009-1.375 3-1.5l41-.5q21.11-.013 40 1" style="opacity:1"/><path fill="#efcf1d" d="M394.5 715.5q24.422 11.279 48 20-25.507-6.765-48-20" style="opacity:1"/><path fill="#c5760e" d="M794.5 436.5q27.188 143.251-67.5 254Q614.702 808.265 453.5 781q-29.256-6.05-56-18.5a2174 2174 0 0 1 36 10.5 306 306 0 0 0 41 7q148.433 11.358 248.5-97.5 90.043-106.75 71.5-246" style="opacity:1"/><path fill="#edc91d" d="M606.5 725.5q-34.67 15.879-73 19a12.9 12.9 0 0 1-5-.5 249 249 0 0 0 45-8q-2.184-.634-1.5-2.5a11.3 11.3 0 0 0 4 2 544 544 0 0 0 30.5-10" style="opacity:1"/><path fill="#123c5b" d="M773.5 724.5q9.574 10.07 19 20a750 750 0 0 1-64 57.5 472 472 0 0 1-71 41.5 1029 1029 0 0 1-16-39 277 277 0 0 0-11-27.5q65.577-28.092 111.5-82.5a1341 1341 0 0 1 31.5 30" style="opacity:1"/><path fill="#091c2d" d="M703.5 744.5q16.516 3.849 33 0a1002 1002 0 0 0 0 39q-8.745-.936-17.5-2-11.839 1.209-23.5 2.5 8.515-19.236 8-39.5" style="opacity:1"/><path fill="#08243a" d="M792.5 744.5q5.886 2.11 6.5 8-55.752 63.243-131.5 100.5-2.92 1.487-6 1-3.333-4.752-4-10.5a472 472 0 0 0 71-41.5 750 750 0 0 0 64-57.5m-567 2q58.914 63.703 139 97a91.4 91.4 0 0 1-5.5 12q-73.872-35.373-130-95a109 109 0 0 1-7.5-10q1.532-2.532 4-4" style="opacity:1"/><path fill="#123c5b" d="M391.5 775.5q-13.505 34.007-27 68-80.086-33.297-139-97l7-8a21705 21705 0 0 1 48-44q46.72 52.749 111 81" style="opacity:1"/><path fill="#0a1e2f" d="M300.5 737.5q8.033-1.732 12.5 5a559 559 0 0 1 12 29q2.938 12.871-9.5 17.5-4.701 1.185-9-1a189 189 0 0 0-9-10.5q-1.948.885-2.5 3a34.3 34.3 0 0 1-1.5 8 95.7 95.7 0 0 0-15.5-13l-1 1a11.3 11.3 0 0 0-3.5-1.5q5.669-3.724 12.5-4.5a24.3 24.3 0 0 0 3.5-3.5q-20.671-3.1-11.5-21.5 8.586-6.577 19-6 2.189-.462 3.5-2" style="opacity:1"/><path fill="#d82620" d="m629.5 808.5 14 39q-10.875 5.724-23 9.5-112.662 35.324-225-1a177 177 0 0 1-18-7.5l18-47a183 183 0 0 1 9-20 300.7 300.7 0 0 0 52 14.5q82.824 14.628 161.5-14.5a430 430 0 0 0 11.5 27" style="opacity:1"/><path fill="#fbc729" d="M866.5 830.5q-2.147 1.92-2 5h-3q1.082 4.976.5 10a69 69 0 0 0-7-22q-7.62-10.183-19.5-10a56.5 56.5 0 0 0-10-2.5q24.835-1.253 32.5-24.5a527 527 0 0 0 4-26q-.193 19.047 8 36 11.264 13.007 28.5 14.5a137 137 0 0 0-22 7q-6.507 5.234-10 12.5" style="opacity:1"/><path fill="#f4dd29" d="M835.5 813.5q11.88-.183 19.5 10a69 69 0 0 1 7 22 30.3 30.3 0 0 0-.5-10h3q-.147-3.08 2-5a132.3 132.3 0 0 0-4 30l-2-8a72.6 72.6 0 0 0-5.5-26q-7.116-10.434-19.5-13" style="opacity:1"/><path fill="#821417" d="M508.5 812.5a18.5 18.5 0 0 1 6 .5 114.5 114.5 0 0 1 21.5 22.5q1.25 14.75-13.5 13.5a17.8 17.8 0 0 1-5.5-4.5q-4.032 10.726 5.5 17.5-13.5 1-27 0 11.47-5.68 8.5-17.5-7.023 7.534-16.5 3.5a6.98 6.98 0 0 1-2.5-3.5q-1.3-6.684 1-13a199.5 199.5 0 0 1 22.5-19" style="opacity:1"/><path fill="#fac82a" d="m174.5 804.5 3.5 21q1.443 11.649 11.5 17.5a69.5 69.5 0 0 0 17 5q-22.714 1.704-28.5 23.5a594 594 0 0 0-3.5 24 320 320 0 0 1-2.5-20q-1.809-16.4-16.5-23.5l-14-4q25.844-.361 30.5-25.5a333 333 0 0 0 2.5-18" style="opacity:1"/><path fill="#a07e26" d="m860.5 852.5 2 8q-.09.814-1 1a21.1 21.1 0 0 1-1-9" style="opacity:1"/><path fill="#8b1619" d="M643.5 847.5q3.047 5.605 5 12-12.339 6.6-26 10.5-126.081 38.748-249-9a3.65 3.65 0 0 1-1-1.5 105 105 0 0 1 5-11 177 177 0 0 0 18 7.5q112.338 36.324 225 1 12.125-3.776 23-9.5" style="opacity:1"/><path fill="#041627" d="M330.5 858.5a1456 1456 0 0 0 46 20.5q19.19 7.341 38.5 11.5 143.154 35.926 277.5-32 4.535-.132 8-3 2.865 3.448 9 4.5-1.794.981 0 1.5l2-2a151 151 0 0 0 17 3.5 42 42 0 0 1 7.5 3.5q4.717-.857 9 0a129.3 129.3 0 0 1 26.5 10.5 18.7 18.7 0 0 1 6 6.5q-.519 1.794-1.5 0 .514 5.004-2 10l-1-1a11.5 11.5 0 0 1-3.5 4.5 347.4 347.4 0 0 1-66 19 2947 2947 0 0 1-64.5 7.5 7.3 7.3 0 0 1-3.5-2q-1.794.519 0 1.5a138 138 0 0 0-9 2.5q-17.808.09-35.5 0-1.016 3.283-3.5 1-8.229 1.035-16.5 2a342 342 0 0 1-27-1q-1.513 1.737-4 2-10.66-.197-21.5-.5-1.823-3.144-2.5.5-12.134.236-25.5-1-.5-6-1 0-5.409-.434-10.5 1a11.3 11.3 0 0 0-3.5-1.5q1.794-.981 0-1.5-3.693 1.823-8 2-4.56-.652-8.5 0l-2-4q-1.782 1.595-1.5 4-4.793.809-7.5-3-.476 2.701-2 1-5.332 3.31-11 0-3.495 2.298-6-1-21.258.135-41 0-2.547-1.85-6-2a1628 1628 0 0 1-73.5-9.5q-5.68-3.374-11.5-4.5a4.46 4.46 0 0 1-1.5 2q-1.794-.519 0-1.5-5.935.594-8.5-4.5-.926 1.423.5 2.5-2 1-4 0l-20-7q-3.978-1.597-5.5-5.5l-1 2q-7.902-4.07-10.5-12.5 3.451-5.902 11-10 3.382-2.477 7-.5.616-1.143.5-3 3.249-1.914 6 1 2.643-.666-.5-1.5 4.545-4.602 10.5-2.5.908-2.972 3-1 4.594-2.738 10-4 4.283-.857 9 0a110.6 110.6 0 0 1 27.5-5" style="opacity:1"/></svg>